<?xml version="1.0" standalone="no"?>
<!DOCTYPE svg PUBLIC "-//W3C//DTD SVG 20010904//EN"
 "http://www.w3.org/TR/2001/REC-SVG-20010904/DTD/svg10.dtd">
<svg version="1.0" xmlns="http://www.w3.org/2000/svg"
 width="800.000000pt" height="600.000000pt" viewBox="0 0 800.000000 600.000000"
 preserveAspectRatio="xMidYMid meet">

<g transform="translate(0.000000,600.000000) scale(0.100000,-0.100000)"
fill="#000000" stroke="none">
<path d="M4717 5491 c-33 -105 -61 -198 -68 -226 -4 -16 -15 -57 -23 -89 -13
-48 -14 -61 -4 -68 7 -4 18 -6 23 -5 9 3 38 86 66 192 16 58 40 137 50 163 15
39 11 69 -11 75 -16 4 -22 -3 -33 -42z"/>
<path d="M3157 5477 c-87 -28 -98 -33 -93 -52 10 -40 25 -92 51 -175 14 -47
32 -107 39 -133 8 -27 18 -53 23 -58 11 -11 152 29 220 63 23 11 55 40 73 65
31 42 32 48 28 123 -3 70 -6 82 -34 116 -40 50 -107 84 -164 83 -25 -1 -89
-15 -143 -32z m205 -31 c52 -22 88 -83 88 -148 -1 -88 -34 -123 -152 -164 -77
-26 -98 -25 -98 3 0 17 -41 158 -66 226 -19 52 -19 52 29 66 23 7 51 17 62 21
32 14 100 11 137 -4z"/>
<path d="M3967 5378 c30 -73 58 -143 60 -155 4 -18 12 -23 38 -23 34 0 36 3
140 235 15 33 29 63 32 68 2 4 -7 7 -21 7 -19 0 -29 -10 -46 -47 -53 -112 -95
-195 -102 -199 -5 -3 -11 3 -14 13 -5 17 -25 70 -44 118 -5 11 -16 41 -27 67
-15 41 -22 48 -45 48 l-27 0 56 -132z"/>
<path d="M3633 5468 c-87 -61 -83 -204 7 -265 57 -39 167 -27 218 24 13 12 12
16 -4 28 -17 12 -22 11 -42 -8 -18 -16 -35 -21 -79 -21 -50 0 -58 3 -84 32
-16 18 -27 37 -25 41 5 7 130 27 211 34 27 2 30 6 33 39 3 32 -3 43 -37 77
-39 39 -44 41 -104 41 -48 0 -69 -5 -94 -22z m128 -22 c39 -16 79 -73 57 -80
-7 -3 -40 -7 -73 -10 -33 -4 -75 -9 -92 -12 -30 -6 -33 -4 -33 19 0 33 30 68
71 83 19 7 35 13 35 13 1 1 17 -5 35 -13z"/>
<path d="M4372 5472 c-62 -19 -112 -91 -112 -163 0 -43 38 -104 79 -127 62
-35 181 -27 181 12 0 10 -17 13 -67 12 -79 -1 -115 17 -132 66 -6 17 -11 34
-11 39 0 8 64 3 125 -11 22 -5 61 -12 88 -15 l47 -6 0 46 c0 55 -19 96 -58
123 -30 22 -104 35 -140 24z m92 -49 c36 -17 73 -74 60 -94 -3 -6 -17 -8 -31
-4 -13 3 -56 10 -95 15 -38 4 -72 11 -76 14 -11 12 24 59 53 72 39 17 48 17
89 -3z"/>
<path d="M4875 5323 c-57 -16 -104 -88 -105 -158 0 -53 16 -82 68 -122 37 -28
52 -33 96 -33 76 0 126 38 150 113 17 54 17 57 -2 100 -26 60 -77 97 -138 102
-27 2 -58 1 -69 -2z m122 -58 c13 -9 30 -32 38 -52 18 -43 8 -80 -33 -125 -21
-23 -34 -28 -73 -28 -38 0 -53 6 -78 29 -26 24 -31 37 -31 73 0 99 97 155 177
103z"/>
<path d="M2492 5177 c-8 -10 12 -51 83 -167 52 -85 100 -166 107 -180 19 -36
54 -34 51 3 -2 26 0 27 43 27 90 0 145 54 147 143 1 63 -23 111 -73 144 -71
49 -189 18 -220 -56 -7 -17 -15 -31 -19 -31 -3 0 -24 29 -46 65 -40 66 -54 76
-73 52z m334 -72 c33 -22 57 -81 50 -120 -7 -37 -52 -81 -92 -91 -61 -15 -134
52 -134 124 0 32 6 47 31 71 25 26 38 31 78 31 25 0 56 -7 67 -15z"/>
<path d="M5207 5153 c-13 -21 -60 -98 -106 -171 -48 -76 -81 -139 -77 -147 6
-16 46 -21 46 -6 0 5 16 32 35 61 34 50 35 51 45 28 35 -84 143 -124 216 -79
57 34 84 81 84 142 0 91 -65 159 -153 159 -31 0 -34 2 -29 25 7 41 -33 33 -61
-12z m126 -64 c51 -26 67 -51 67 -100 0 -40 -5 -53 -34 -83 -27 -29 -41 -36
-70 -36 -69 0 -115 41 -116 101 0 46 17 81 54 107 34 24 66 28 99 11z"/>
<path d="M2395 4933 c-32 -8 -82 -50 -99 -84 -51 -103 45 -239 158 -227 72 8
140 65 152 128 9 43 -18 40 -47 -6 -40 -65 -126 -95 -171 -60 -16 11 -7 21 82
98 l99 86 -28 26 c-39 37 -93 52 -146 39z m93 -56 c6 -5 12 -13 12 -17 0 -14
-135 -120 -152 -120 -18 0 -23 19 -18 64 7 70 105 115 158 73z"/>
<path d="M5525 4906 c-80 -36 -118 -137 -80 -214 32 -63 128 -120 164 -97 16
10 13 35 -4 35 -28 0 -92 38 -109 66 -20 29 -24 90 -7 107 12 12 48 -14 141
-100 68 -63 77 -62 106 13 20 53 14 94 -22 142 -44 57 -123 77 -189 48z m114
-40 c15 -8 35 -26 45 -40 20 -32 21 -95 1 -102 -17 -7 -34 5 -109 73 l-57 52
28 15 c36 19 57 20 92 2z"/>
<path d="M2057 4804 c-18 -18 -1 -55 84 -180 50 -74 89 -138 85 -141 -3 -3
-74 17 -158 46 -84 28 -161 51 -170 51 -31 0 -32 -38 -1 -83 15 -23 30 -46 33
-52 3 -5 31 -49 63 -97 31 -47 57 -89 57 -93 0 -11 -32 -2 -176 49 -73 25
-139 46 -147 46 -23 0 -40 -25 -25 -37 18 -13 369 -133 390 -133 21 0 42 35
32 53 -24 42 -160 243 -166 245 -5 2 -8 10 -8 18 0 8 3 14 8 14 4 0 78 -23
165 -52 154 -52 159 -53 173 -34 8 11 14 23 14 27 0 10 -207 319 -229 342 -9
10 -20 14 -24 11z"/>
<path d="M5848 4683 c-8 -10 -56 -54 -106 -98 -50 -44 -91 -85 -92 -91 0 -6 7
-17 15 -24 12 -10 25 -3 78 47 35 33 79 65 97 73 30 12 37 11 77 -10 40 -21
46 -22 59 -8 14 14 13 18 -14 37 -17 11 -42 21 -56 21 -28 0 -33 9 -15 27 14
14 5 43 -13 43 -8 0 -21 -8 -30 -17z"/>
<path d="M5898 4239 c-22 -12 -23 -42 -2 -60 31 -26 70 25 44 56 -14 17 -19
18 -42 4z"/>
<path d="M6345 4105 c-215 -82 -269 -126 -269 -219 0 -63 22 -114 69 -155 51
-44 114 -43 227 4 45 19 91 39 100 45 10 5 24 10 32 10 7 0 19 6 25 14 12 14
5 46 -10 46 -5 0 -63 -22 -129 -50 -66 -27 -135 -50 -153 -50 -61 0 -117 64
-117 133 0 54 43 88 180 144 101 41 120 51 120 70 0 32 -9 33 -75 8z"/>
<path d="M1875 3890 c-13 -41 43 -70 64 -33 13 25 -5 53 -34 53 -15 0 -26 -7
-30 -20z"/>
<path d="M1550 3686 c0 -25 6 -48 13 -53 8 -5 2 -9 -18 -13 -21 -4 -30 -11
-30 -25 0 -16 18 -25 110 -52 137 -41 190 -46 190 -19 0 12 -10 22 -25 26 -14
4 -45 13 -70 20 -66 19 -118 50 -124 74 -3 12 -6 36 -6 54 0 25 -4 32 -20 32
-17 0 -20 -7 -20 -44z"/>
<path d="M6525 3639 c-30 -9 -175 -49 -274 -75 -64 -16 -65 -17 -56 -44 6 -18
12 -20 38 -15 50 11 361 95 365 100 2 2 1 13 -3 24 -7 22 -22 25 -70 10z"/>
<path d="M1512 3425 c-110 -93 -62 -265 78 -275 89 -7 137 19 165 87 19 44 19
132 1 156 -17 22 -51 12 -40 -12 12 -28 16 -70 10 -95 -10 -42 -55 -86 -86
-86 -27 0 -28 1 -23 43 3 23 11 74 19 114 8 40 14 77 14 83 0 6 -23 10 -54 10
-43 0 -60 -5 -84 -25z m84 -77 c-8 -91 -17 -137 -27 -143 -4 -3 -22 7 -40 23
-28 25 -32 35 -32 75 1 55 6 63 47 88 53 32 59 27 52 -43z"/>
<path d="M6156 3441 c-3 -5 -4 -16 -1 -24 6 -14 46 -23 218 -48 95 -14 174
-27 245 -40 31 -6 74 -9 95 -7 34 3 37 5 25 20 -9 11 -40 21 -93 28 -44 6
-109 16 -145 22 -133 20 -187 28 -250 36 -36 4 -70 11 -77 15 -6 4 -14 3 -17
-2z"/>
<path d="M6495 3210 c-159 -10 -199 -33 -225 -130 -9 -32 -9 -55 1 -94 13 -58
40 -92 86 -112 35 -15 167 -19 272 -8 55 6 61 9 61 30 l0 22 -159 -1 c-155 -2
-160 -1 -185 22 -29 27 -41 89 -28 136 16 56 56 72 199 79 71 4 135 10 143 15
8 4 16 18 18 30 4 24 13 23 -183 11z"/>
<path d="M1495 3071 c-48 -29 -67 -66 -68 -131 0 -43 5 -65 21 -88 21 -29 21
-30 2 -35 -12 -3 -20 -14 -20 -26 0 -21 2 -21 208 -19 206 3 207 3 210 26 3
21 0 22 -72 22 -42 0 -76 2 -76 5 0 2 9 19 20 37 40 66 17 161 -49 205 -44 30
-132 32 -176 4z m171 -67 c102 -108 -60 -249 -168 -146 -23 21 -28 34 -28 75
0 42 4 53 31 78 26 24 40 29 81 29 45 0 54 -4 84 -36z"/>
<path d="M6270 2766 c0 -16 18 -42 53 -76 48 -47 51 -52 33 -63 -10 -7 -38
-24 -62 -39 -42 -26 -72 -69 -53 -76 5 -2 21 5 36 16 16 10 52 32 81 47 l53
29 62 -62 c34 -34 66 -62 70 -62 4 0 7 10 7 22 0 13 -20 43 -51 74 l-51 51 57
33 c52 30 87 71 72 87 -4 3 -24 -5 -45 -19 -20 -14 -56 -35 -78 -46 l-41 -21
-64 65 c-35 35 -67 64 -71 64 -4 0 -8 -11 -8 -24z"/>
<path d="M1562 2683 c-54 -11 -123 -116 -108 -164 2 -8 7 -26 10 -41 10 -42
63 -96 106 -108 59 -16 122 3 165 51 32 36 35 44 35 100 0 68 -21 114 -66 143
-26 18 -102 28 -142 19z m141 -83 c21 -23 27 -40 27 -73 -1 -65 -45 -107 -115
-107 -70 0 -115 41 -115 105 0 103 134 152 203 75z"/>
<path d="M1620 2275 c-102 -29 -193 -56 -202 -60 -18 -7 -25 -40 -10 -49 11
-7 400 108 414 122 9 9 9 15 -2 26 -13 12 -42 6 -200 -39z"/>
<path d="M6184 2284 c-4 -11 -17 -44 -29 -75 -12 -30 -28 -79 -35 -107 -27
-114 32 -214 148 -248 52 -15 61 -15 107 0 56 17 108 62 129 110 30 68 65 162
68 180 2 15 -8 23 -42 36 -25 9 -54 20 -65 24 -255 100 -273 104 -281 80z
m154 -90 c180 -66 167 -58 165 -95 -2 -52 -45 -135 -86 -169 -26 -21 -42 -25
-93 -25 -55 0 -67 4 -101 31 -62 50 -75 124 -38 224 7 19 16 43 19 53 8 24 24
22 134 -19z"/>
<path d="M1805 2160 c-4 -6 9 -28 28 -49 19 -21 38 -53 42 -70 12 -58 -54
-146 -71 -94 -19 56 -87 213 -94 213 -19 0 -75 -49 -92 -80 -25 -46 -19 -108
16 -159 33 -47 62 -61 127 -61 118 0 191 111 145 221 -30 71 -81 111 -101 79z
m-65 -142 c18 -46 35 -89 37 -95 4 -9 -7 -13 -34 -13 -56 0 -93 40 -93 100 0
41 28 90 51 90 4 0 22 -37 39 -82z"/>
<path d="M6007 1831 c-46 -30 -79 -87 -80 -139 -2 -41 1 -47 18 -47 17 0 21 9
26 49 7 67 50 106 114 106 25 0 45 -2 45 -5 0 -2 -29 -52 -65 -110 -36 -57
-65 -107 -65 -110 0 -12 63 -35 98 -35 151 0 207 193 82 283 -47 34 -128 38
-173 8z m196 -141 c0 -59 -41 -100 -100 -100 -24 0 -43 3 -43 6 0 9 59 114 82
147 l21 29 20 -20 c13 -14 20 -34 20 -62z"/>
<path d="M1939 1796 c-2 -3 -51 -10 -107 -16 -120 -13 -133 -17 -125 -36 7
-18 73 -18 194 -2 49 6 92 8 96 5 3 -4 -5 -20 -19 -35 -61 -66 -136 -182 -131
-202 8 -32 19 -32 38 -2 10 15 54 76 98 135 73 98 79 110 69 132 -10 22 -18
25 -60 25 -27 0 -51 -2 -53 -4z"/>
<path d="M5855 1591 c-42 -26 -92 -81 -104 -114 -16 -42 -13 -71 10 -101 31
-40 73 -35 134 15 73 61 84 65 108 41 18 -18 19 -24 7 -52 -7 -17 -30 -45 -52
-63 -26 -22 -37 -38 -33 -49 9 -23 37 -12 78 30 49 51 69 108 52 149 -14 33
-41 53 -72 53 -10 0 -47 -22 -83 -50 -70 -53 -94 -60 -109 -32 -18 33 30 104
97 141 12 7 14 14 6 30 -9 21 -9 21 -39 2z"/>
<path d="M2117 1583 c-16 -15 -5 -34 27 -47 38 -16 74 -61 81 -103 6 -30 -14
-78 -31 -78 -6 0 -43 41 -83 90 -39 50 -76 91 -81 93 -23 8 -80 -83 -80 -128
0 -34 37 -97 73 -124 69 -53 192 -23 231 55 19 38 21 111 4 142 -38 67 -118
124 -141 100z m6 -209 c36 -46 37 -49 20 -62 -28 -21 -84 -8 -115 28 -33 36
-38 93 -11 123 20 21 20 21 106 -89z"/>
<path d="M5637 1364 c-4 -4 -7 -14 -7 -22 0 -20 202 -212 220 -209 35 6 16 38
-80 133 -99 97 -119 112 -133 98z"/>
<path d="M5420 1308 c-50 -28 -86 -65 -106 -106 -13 -29 -14 -41 -5 -73 10
-35 65 -114 125 -182 13 -16 39 -46 56 -67 37 -46 65 -45 56 1 -5 26 -3 29 19
29 108 0 189 126 140 219 -21 41 -70 79 -111 87 -69 13 -164 -46 -180 -112 -4
-14 -11 -23 -18 -21 -20 7 -47 64 -41 89 10 39 62 86 115 105 34 12 50 23 50
35 0 25 -54 23 -100 -4z m190 -153 c32 -16 60 -61 60 -94 0 -56 -61 -111 -123
-111 -112 0 -137 153 -34 204 40 20 60 20 97 1z"/>
<path d="M2294 1269 c-37 -10 -100 -76 -120 -125 -20 -47 -17 -101 7 -151 21
-43 172 -193 194 -193 7 0 32 24 56 52 24 29 70 81 101 116 32 35 71 80 88
102 l30 38 -92 76 c-113 93 -171 112 -264 85z m217 -104 l69 -56 -19 -26 c-11
-13 -51 -58 -87 -99 -37 -41 -74 -84 -81 -94 -8 -11 -20 -20 -26 -20 -7 0 -42
28 -78 63 -55 52 -67 69 -73 105 -17 112 61 198 172 188 46 -4 62 -12 123 -61z"/>
<path d="M5905 1079 c-10 -30 19 -53 47 -38 29 15 20 53 -14 57 -20 2 -28 -2
-33 -19z"/>
<path d="M5227 1019 c-16 -9 -15 -15 19 -77 20 -37 41 -73 47 -80 5 -6 10 -31
11 -53 1 -34 -5 -46 -32 -70 -64 -57 -125 -30 -181 82 -12 24 -30 54 -39 67
-15 20 -20 21 -36 9 -18 -13 -17 -16 14 -73 81 -145 100 -164 169 -164 51 0
101 32 127 81 14 27 17 29 27 14 14 -18 47 -11 47 10 0 7 -28 62 -63 122 -35
60 -66 117 -70 126 -7 19 -15 21 -40 6z"/>
<path d="M2843 958 c-5 -7 -28 -50 -51 -95 -56 -108 -57 -157 -7 -202 36 -31
136 -68 155 -56 5 3 10 15 10 26 0 14 -7 19 -28 19 -15 0 -48 10 -72 23 -40
20 -45 26 -48 61 -5 57 7 62 76 27 101 -51 164 -39 177 35 12 62 -55 124 -132
124 -28 0 -42 4 -38 10 7 11 -12 40 -25 40 -4 0 -12 -6 -17 -12z m123 -84 c38
-18 52 -51 34 -83 -14 -27 -49 -27 -103 0 -65 33 -69 37 -51 64 24 37 68 44
120 19z"/>
<path d="M4776 800 c-51 -26 -76 -49 -76 -71 0 -32 20 -31 62 5 34 29 50 36
84 36 45 0 103 -37 91 -57 -4 -6 -37 -20 -74 -33 -107 -36 -153 -58 -153 -73
0 -8 17 -34 39 -58 37 -42 40 -44 97 -44 133 0 202 110 144 230 -37 77 -132
106 -214 65z m186 -142 c10 -29 -16 -76 -52 -97 -47 -26 -66 -26 -107 -1 -36
22 -43 47 -15 56 9 3 44 17 77 30 69 26 92 29 97 12z"/>
<path d="M3123 683 c-61 -65 -114 -121 -118 -125 -4 -3 4 -12 16 -19 21 -11
27 -7 67 37 116 128 145 155 153 142 5 -7 9 -58 10 -113 1 -117 8 -149 34
-153 17 -4 18 3 12 154 -6 145 -9 161 -28 177 -12 9 -24 17 -28 17 -4 0 -57
-53 -118 -117z"/>
<path d="M4560 730 c-12 -8 -12 -18 4 -82 10 -40 16 -93 14 -118 -3 -39 -8
-48 -40 -69 -41 -26 -51 -61 -18 -61 10 0 35 14 54 30 27 24 35 27 40 15 5
-14 37 -21 48 -10 3 3 -6 49 -19 103 -53 216 -52 212 -83 192z"/>
<path d="M3440 704 c-6 -14 -10 -34 -10 -44 0 -10 -7 -49 -15 -85 -27 -114 13
-170 127 -182 69 -6 108 8 101 37 -4 15 -11 19 -22 14 -35 -14 -52 -16 -87 -9
-42 7 -84 48 -84 81 0 23 0 23 99 17 91 -5 100 -4 119 15 33 33 38 69 15 100
-39 53 -115 74 -174 48 -12 -5 -18 -1 -22 13 -7 29 -36 26 -47 -5z m194 -63
c19 -20 20 -23 6 -49 -19 -33 -48 -38 -117 -21 -55 13 -62 23 -42 60 23 43
114 49 153 10z"/>
<path d="M3816 638 c-36 -36 -39 -51 -52 -264 l-6 -111 38 -6 c76 -13 164 -8
171 8 9 24 -1 28 -78 34 l-71 6 1 120 c2 156 16 189 80 193 33 3 49 -2 66 -18
24 -23 58 -18 53 8 -6 31 -67 62 -120 62 -43 0 -55 -5 -82 -32z"/>
<path d="M4182 638 c3 -37 35 -50 57 -24 21 25 4 56 -30 56 -28 0 -30 -2 -27
-32z"/>
</g>
</svg>
