<?xml version="1.0" standalone="no"?>
<!DOCTYPE svg PUBLIC "-//W3C//DTD SVG 20010904//EN"
 "http://www.w3.org/TR/2001/REC-SVG-20010904/DTD/svg10.dtd">
<svg version="1.0" xmlns="http://www.w3.org/2000/svg"
 width="800.000000pt" height="600.000000pt" viewBox="0 0 800.000000 600.000000"
 preserveAspectRatio="xMidYMid meet">

<g transform="translate(0.000000,600.000000) scale(0.100000,-0.100000)"
fill="#000000" stroke="none">
<path d="M3351 5715 c-52 -13 -97 -28 -101 -32 -6 -7 23 -140 42 -193 3 -8 13
-49 23 -90 31 -135 33 -138 89 -121 17 5 51 15 76 22 94 25 131 43 166 81 44
49 54 76 54 145 0 89 -44 157 -125 194 -53 24 -110 23 -224 -6z m192 -39 c126
-54 144 -213 32 -287 -39 -26 -172 -66 -183 -55 -3 3 -15 45 -28 93 -12 49
-30 117 -39 151 -9 35 -14 67 -10 70 10 11 127 40 163 41 18 1 47 -5 65 -13z"/>
<path d="M4130 5713 c0 -8 45 -130 111 -301 10 -27 36 -39 56 -26 8 5 50 78
93 162 l78 152 -28 0 c-26 0 -33 -10 -90 -125 -34 -69 -64 -125 -66 -125 -6 0
-20 36 -64 160 -33 96 -39 105 -63 108 -15 2 -27 0 -27 -5z"/>
<path d="M4966 5708 c-14 -49 -75 -240 -102 -321 l-32 -98 25 -10 c14 -5 27
-8 28 -7 2 3 13 39 75 238 23 74 46 147 52 162 5 15 7 32 3 37 -9 15 -45 14
-49 -1z"/>
<path d="M3865 5696 c-67 -30 -95 -76 -95 -154 0 -95 67 -162 164 -162 56 0
136 33 136 56 0 22 -23 26 -56 9 -16 -8 -51 -15 -77 -15 -43 0 -54 5 -84 35
-19 19 -32 39 -29 44 4 5 41 12 84 15 170 14 182 16 182 35 0 29 -26 84 -52
108 -46 43 -116 55 -173 29z m138 -61 c15 -14 27 -34 27 -44 0 -16 -12 -20
-95 -26 -118 -9 -109 -10 -113 15 -2 12 8 32 27 50 25 25 37 30 78 30 38 0 54
-5 76 -25z"/>
<path d="M4599 5661 c-70 -22 -119 -91 -119 -165 0 -109 130 -193 239 -155 25
9 31 16 29 33 -2 13 -9 19 -18 17 -79 -23 -147 -3 -180 52 -40 64 -27 68 120
37 134 -29 130 -29 130 30 0 59 -19 100 -58 128 -32 23 -105 35 -143 23z m112
-55 c17 -7 33 -34 44 -73 6 -20 3 -23 -24 -23 -16 0 -53 5 -83 11 -29 6 -63
13 -75 15 -47 9 -16 67 43 83 27 7 54 3 95 -13z"/>
<path d="M5100 5489 c-89 -36 -129 -162 -75 -242 41 -60 123 -94 187 -76 148
39 171 242 34 308 -45 22 -105 26 -146 10z m114 -44 c45 -19 69 -55 69 -104 0
-65 -57 -131 -114 -131 -52 0 -119 64 -119 114 0 46 31 94 74 116 49 24 45 24
90 5z"/>
<path d="M2641 5431 c-11 -7 -12 -13 -4 -23 12 -15 50 -84 166 -298 37 -69 49
-82 70 -74 12 4 15 13 11 29 -5 22 -3 23 33 19 49 -7 119 28 150 75 78 117
-50 294 -181 251 -46 -15 -95 -55 -108 -89 l-9 -26 -19 25 c-10 14 -29 46 -41
73 -22 46 -39 56 -68 38z m359 -102 c75 -83 29 -199 -79 -199 -35 0 -49 6 -76
33 -57 57 -58 117 -3 169 25 23 39 28 80 28 42 0 53 -4 78 -31z"/>
<path d="M5476 5348 c-3 -7 -14 -25 -24 -40 -9 -14 -55 -85 -101 -157 -46 -73
-88 -134 -92 -137 -15 -9 -10 -33 10 -43 16 -9 25 -2 62 54 43 65 61 75 67 39
10 -49 79 -94 147 -94 58 0 94 18 131 67 38 50 42 140 6 190 -28 39 -103 77
-142 71 -33 -5 -34 -4 -20 22 8 15 6 21 -9 30 -25 13 -28 13 -35 -2z m146
-127 c28 -25 32 -34 32 -81 0 -48 -3 -56 -37 -86 -31 -28 -44 -34 -83 -34 -40
0 -51 5 -80 36 -38 40 -44 77 -19 124 39 74 127 94 187 41z"/>
<path d="M2493 5165 c-140 -85 -83 -305 80 -305 85 0 177 69 177 133 0 36 -35
38 -44 3 -3 -13 -22 -38 -41 -55 -29 -25 -44 -31 -84 -31 -33 0 -53 5 -64 18
-15 16 -11 21 61 74 42 32 91 68 107 82 l30 24 -25 27 c-56 61 -127 71 -197
30z m136 -42 c21 -18 21 -18 -54 -76 -92 -71 -101 -75 -110 -47 -29 92 92 182
164 123z"/>
<path d="M2180 5059 c-14 -26 -6 -44 100 -218 39 -63 70 -116 70 -118 0 -8
-29 -2 -56 11 -16 8 -87 38 -159 66 -126 49 -130 50 -148 31 -18 -18 -18 -19
2 -57 12 -22 26 -46 31 -54 35 -53 130 -223 127 -227 -2 -2 -80 26 -172 63
-153 60 -169 65 -183 50 -14 -14 -14 -18 -2 -30 12 -11 390 -166 405 -166 2 0
12 11 21 25 16 24 15 27 -25 91 -22 36 -41 67 -41 70 0 2 -23 41 -50 86 -28
44 -48 83 -46 86 5 4 54 -13 141 -48 91 -37 182 -70 191 -70 6 0 19 9 28 19
17 19 16 23 -38 110 -31 50 -56 93 -56 95 0 4 -117 194 -126 204 -1 2 -8 -6
-14 -19z"/>
<path d="M5810 5062 c-14 -2 -40 -15 -58 -29 -80 -60 -96 -150 -41 -230 46
-66 159 -112 159 -64 0 13 -14 24 -45 36 -60 22 -95 69 -95 124 0 67 19 62
118 -28 49 -45 95 -81 103 -81 25 0 53 61 53 115 0 104 -87 174 -194 157z
m116 -73 c13 -12 27 -38 30 -56 8 -42 -10 -88 -30 -76 -27 15 -146 125 -146
134 0 34 109 33 146 -2z"/>
<path d="M6049 4758 c-172 -152 -156 -134 -135 -157 18 -20 18 -20 92 44 40
36 85 67 99 71 31 8 74 -3 97 -23 14 -13 20 -13 33 -3 8 7 15 16 15 21 0 15
-63 49 -89 49 -23 0 -24 1 -6 20 15 16 15 22 5 35 -7 8 -16 15 -21 15 -4 0
-45 -33 -90 -72z"/>
<path d="M6140 4339 c-9 -16 -8 -25 6 -40 22 -25 39 -24 58 2 11 17 12 25 3
40 -16 25 -54 24 -67 -2z"/>
<path d="M6549 4186 c-70 -29 -140 -63 -157 -77 -61 -49 -77 -122 -43 -201 37
-85 90 -122 165 -116 50 5 306 103 306 117 0 4 -6 15 -13 25 -11 16 -22 13
-146 -39 -143 -59 -166 -63 -210 -40 -32 16 -71 87 -71 126 1 61 37 90 193
154 65 26 120 52 123 57 7 10 -5 48 -14 47 -4 0 -64 -24 -133 -53z"/>
<path d="M1956 4144 c-20 -19 -20 -38 -1 -54 18 -15 45 -10 59 12 8 13 6 22
-8 37 -23 25 -30 26 -50 5z"/>
<path d="M1595 3967 c-4 -14 -2 -41 3 -61 10 -36 10 -36 -16 -34 -21 2 -28 -2
-30 -19 -2 -13 -1 -23 1 -23 3 0 49 -16 103 -36 200 -72 186 -68 201 -48 7 10
13 21 13 25 0 4 -43 22 -96 40 -114 39 -137 61 -132 129 2 40 0 45 -19 48 -17
2 -24 -3 -28 -21z"/>
<path d="M6765 3718 c-38 -11 -86 -24 -105 -28 -59 -14 -194 -51 -202 -56 -10
-6 -10 -41 0 -47 4 -3 48 5 97 18 50 13 140 36 200 52 104 27 110 30 113 56 4
33 -4 33 -103 5z"/>
<path d="M1589 3698 c-106 -28 -152 -164 -85 -253 50 -66 152 -86 217 -42 58
39 79 81 79 156 0 70 -9 96 -31 89 -10 -3 -14 -24 -14 -74 0 -75 -18 -112 -63
-133 -20 -10 -62 -15 -62 -8 0 5 31 145 44 200 7 31 11 59 7 61 -19 10 -60 12
-92 4z m47 -67 c-2 -9 -12 -52 -22 -96 -10 -44 -21 -84 -24 -88 -4 -4 -21 4
-39 18 -27 23 -31 33 -31 74 0 54 20 88 63 106 36 15 59 9 53 -14z"/>
<path d="M6420 3500 c6 -10 25 -21 43 -24 515 -84 549 -88 561 -76 19 19 -17
38 -94 49 -82 12 -127 19 -329 50 -74 12 -147 21 -163 21 -25 0 -28 -2 -18
-20z"/>
<path d="M1504 3316 c-48 -21 -77 -70 -82 -138 -3 -43 0 -65 12 -83 18 -28 13
-50 -10 -41 -10 4 -14 -3 -14 -23 l0 -28 123 -6 c67 -4 166 -10 220 -13 l97
-7 0 26 c0 27 -16 32 -122 39 l-37 3 30 45 c26 38 30 52 26 92 -5 57 -45 114
-93 134 -42 18 -109 17 -150 0z m121 -46 c76 -29 99 -117 47 -179 -23 -28 -36
-34 -77 -38 -68 -6 -116 25 -128 83 -21 97 65 169 158 134z"/>
<path d="M6785 3289 c-137 -9 -165 -16 -205 -52 -36 -32 -50 -70 -50 -136 0
-65 18 -110 57 -141 44 -34 94 -41 243 -34 138 7 140 7 140 30 l0 24 -155 0
c-170 0 -199 7 -225 54 -17 32 -17 103 -1 134 22 40 81 62 173 62 46 0 107 3
136 7 50 6 53 7 50 32 -4 31 0 31 -163 20z"/>
<path d="M1543 2908 c-50 -11 -107 -70 -117 -123 -24 -127 88 -241 201 -205
88 29 123 77 123 167 0 50 -5 66 -29 101 -39 53 -104 75 -178 60z m90 -57
c131 -50 73 -237 -67 -218 -111 15 -134 168 -32 213 37 16 66 17 99 5z"/>
<path d="M6530 2835 c0 -22 14 -43 56 -86 l55 -56 -38 -25 c-21 -14 -53 -32
-70 -42 -24 -12 -33 -23 -33 -41 0 -14 3 -25 6 -25 3 0 39 20 80 45 40 25 80
45 87 45 8 0 43 -28 77 -61 62 -60 64 -61 73 -38 7 21 1 31 -48 77 -50 46 -62
72 -35 72 5 0 31 14 59 31 38 24 51 38 51 55 0 13 -2 24 -5 24 -2 0 -39 -20
-81 -45 -84 -50 -76 -50 -138 10 -17 17 -46 43 -64 59 l-32 30 0 -29z"/>
<path d="M1655 2499 c-49 -10 -139 -29 -200 -42 -104 -22 -110 -24 -110 -47 0
-31 0 -31 195 10 223 47 234 49 243 50 4 0 7 11 7 25 0 30 -9 31 -135 4z"/>
<path d="M1630 2349 c-53 -21 -100 -89 -100 -144 0 -41 37 -112 70 -135 47
-34 117 -38 174 -11 48 24 66 46 86 104 10 33 10 47 -5 92 -16 54 -56 105 -81
105 -25 0 -26 -22 -1 -48 53 -57 56 -143 6 -188 -29 -26 -29 -26 -95 179 -10
31 -21 57 -24 56 -3 0 -16 -5 -30 -10z m34 -101 c24 -67 46 -138 46 -148 0
-16 -49 -11 -80 7 -52 30 -67 109 -29 157 29 37 45 33 63 -16z"/>
<path d="M6450 2329 c-35 -64 -70 -188 -70 -247 0 -122 87 -205 216 -206 89 0
161 51 193 135 7 19 17 43 21 54 26 65 40 108 40 124 0 14 -22 27 -97 54 -54
19 -142 51 -195 71 -96 35 -98 35 -108 15z m206 -111 l141 -50 -13 -37 c-35
-104 -63 -150 -103 -175 -91 -58 -222 -9 -250 91 -14 50 -14 51 8 119 35 107
40 117 59 109 9 -3 80 -29 158 -57z"/>
<path d="M1805 1960 c-60 -4 -127 -8 -147 -9 -39 -1 -44 -6 -29 -30 7 -11 35
-14 128 -12 65 1 128 5 141 8 15 4 22 1 22 -10 0 -8 -4 -17 -8 -19 -4 -1 -43
-44 -85 -95 -71 -84 -91 -123 -68 -137 13 -9 231 241 231 265 -1 25 -27 49
-51 47 -13 -1 -73 -5 -134 -8z"/>
<path d="M6305 1873 c-35 -9 -79 -49 -102 -93 -25 -46 -32 -130 -10 -130 23 0
32 15 33 52 2 70 86 142 144 123 26 -8 26 -12 -10 -68 -16 -26 -30 -50 -30
-52 0 -2 -16 -30 -35 -61 -31 -53 -33 -59 -17 -69 28 -19 89 -27 130 -16 37
10 74 43 100 88 17 31 15 104 -4 142 -31 61 -129 103 -199 84z m160 -118 c28
-60 1 -122 -65 -148 -23 -10 -43 -12 -58 -6 l-23 9 27 47 c48 87 79 133 90
133 7 0 19 -16 29 -35z"/>
<path d="M2030 1717 c0 -15 9 -26 30 -35 63 -28 92 -133 51 -183 -11 -13 -21
-22 -23 -19 -2 3 -35 52 -73 110 -38 58 -70 107 -72 109 -7 11 -55 -34 -73
-69 -28 -55 -26 -107 7 -158 29 -45 91 -83 134 -81 70 2 154 65 165 125 15 81
-21 163 -90 205 -41 25 -56 24 -56 -4z m-31 -168 c29 -44 50 -87 47 -95 -12
-32 -99 -6 -130 38 -28 40 -14 138 19 138 6 0 35 -36 64 -81z"/>
<path d="M6073 1573 c-56 -54 -73 -86 -73 -136 0 -33 6 -49 23 -65 41 -38 81
-28 155 40 32 29 50 38 70 36 55 -6 34 -92 -33 -135 -23 -15 -32 -28 -29 -38
9 -23 32 -18 74 15 69 54 92 148 48 190 -45 41 -86 34 -153 -26 -66 -58 -97
-65 -110 -23 -11 33 42 106 98 136 23 11 26 17 16 29 -19 23 -45 16 -86 -23z"/>
<path d="M2162 1383 c-115 -63 -158 -170 -112 -277 22 -52 156 -201 181 -201
9 0 83 64 165 143 l148 143 -84 84 c-47 47 -104 94 -127 105 -53 25 -127 26
-171 3z m153 -52 c55 -25 150 -124 139 -143 -15 -25 -221 -218 -232 -218 -6 0
-15 6 -19 14 -4 8 -29 36 -54 63 -25 26 -52 65 -59 86 -31 97 57 212 165 216
11 0 38 -8 60 -18z"/>
<path d="M5895 1360 c-22 -24 -34 -9 114 -144 52 -47 99 -86 106 -86 7 0 18 6
24 14 12 14 -2 28 -170 184 -56 52 -56 52 -74 32z"/>
<path d="M5676 1310 c-77 -39 -126 -102 -126 -164 0 -39 31 -102 64 -131 6 -5
47 -52 90 -103 75 -90 79 -92 97 -76 13 12 16 21 9 28 -16 16 -12 26 10 26 38
0 99 32 125 66 55 72 42 171 -32 227 -81 61 -212 16 -247 -86 -7 -20 -16 -33
-22 -29 -20 14 -44 62 -44 88 0 37 76 109 130 124 29 8 40 16 40 30 0 26 -41
26 -94 0z m193 -164 c81 -43 79 -142 -5 -197 -44 -28 -87 -24 -129 12 -31 27
-35 37 -35 78 1 92 89 148 169 107z"/>
<path d="M6181 1082 c-20 -38 31 -71 59 -37 6 8 9 23 5 35 -8 25 -51 27 -64 2z"/>
<path d="M2680 949 c-83 -129 -90 -158 -52 -217 36 -56 181 -102 190 -59 2 11
-3 17 -15 17 -30 0 -121 47 -132 69 -15 26 -14 53 2 75 12 16 18 15 83 -23 79
-46 119 -51 152 -21 73 69 4 190 -109 190 -24 0 -29 4 -29 25 0 18 -5 25 -19
25 -13 0 -36 -26 -71 -81z m177 -26 c47 -31 36 -103 -16 -103 -28 0 -115 42
-127 61 -9 16 23 57 48 61 32 5 69 -3 95 -19z"/>
<path d="M5470 995 c-9 -11 -8 -20 8 -42 44 -64 82 -144 82 -175 0 -43 -24
-76 -66 -94 -59 -25 -107 13 -169 131 -32 62 -47 74 -70 55 -13 -11 -11 -19
14 -64 81 -146 119 -186 177 -186 42 0 105 40 133 83 18 28 27 34 37 26 13
-11 58 -3 52 10 -20 46 -164 271 -173 271 -7 0 -18 -7 -25 -15z"/>
<path d="M2983 709 c-68 -61 -123 -115 -123 -120 0 -18 30 -21 53 -6 12 9 60
50 106 91 46 42 87 76 91 76 3 0 4 -61 2 -135 -3 -99 -1 -139 8 -150 31 -38
37 -17 43 158 6 154 5 173 -10 185 -9 6 -24 12 -32 12 -9 0 -71 -50 -138 -111z"/>
<path d="M5045 780 c-36 -11 -115 -76 -115 -95 0 -26 33 -27 54 -1 29 35 89
58 131 50 35 -6 79 -40 70 -53 -2 -5 -56 -30 -120 -56 -63 -26 -115 -52 -115
-58 0 -27 45 -78 87 -98 42 -20 51 -21 92 -10 94 24 135 79 128 172 -5 63 -34
111 -78 135 -37 19 -98 25 -134 14z m165 -176 c0 -49 -53 -104 -101 -104 -36
0 -99 32 -99 50 0 6 17 18 38 26 72 30 107 46 122 54 30 17 40 11 40 -26z"/>
<path d="M3327 723 c-5 -10 -40 -123 -57 -185 -16 -62 -2 -105 46 -137 29 -20
49 -25 107 -25 63 -1 72 1 72 17 0 16 -9 19 -57 20 -67 2 -111 29 -116 71 -6
52 1 57 60 39 75 -22 142 -21 168 2 29 27 28 94 -4 128 -29 32 -59 40 -125 35
-44 -3 -51 0 -53 17 -3 20 -32 33 -41 18z m164 -84 c33 -23 38 -58 13 -83 -18
-18 -39 -20 -80 -7 -16 5 -42 12 -57 16 -25 5 -28 9 -23 33 15 60 90 82 147
41z"/>
<path d="M4783 658 c2 -18 12 -59 21 -91 28 -100 17 -145 -41 -172 -23 -11
-33 -21 -29 -32 3 -8 6 -17 6 -19 0 -2 9 -4 20 -4 10 0 35 16 55 37 23 24 35
31 35 20 0 -21 12 -27 37 -21 23 6 25 -3 -26 187 -17 65 -31 120 -31 122 0 3
-12 5 -26 5 -24 0 -26 -3 -21 -32z"/>
<path d="M3735 623 c-45 -11 -78 -60 -88 -128 -14 -98 -37 -236 -42 -257 -6
-23 -2 -24 67 -36 123 -21 143 -20 146 5 3 19 -3 22 -55 28 -83 9 -93 14 -93
38 -1 34 31 229 42 259 20 55 105 59 148 6 18 -22 20 -22 36 -6 15 14 15 20 4
33 -37 44 -113 71 -165 58z"/>
<path d="M4413 613 c-16 -6 -17 -59 -2 -68 5 -4 21 -4 35 -1 30 8 33 50 5 66
-11 5 -21 10 -23 9 -2 0 -9 -3 -15 -6z"/>
</g>
</svg>
