<?xml version="1.0" standalone="no"?>
<!DOCTYPE svg PUBLIC "-//W3C//DTD SVG 20010904//EN"
 "http://www.w3.org/TR/2001/REC-SVG-20010904/DTD/svg10.dtd">
<svg version="1.0" xmlns="http://www.w3.org/2000/svg"
 width="800.000000pt" height="600.000000pt" viewBox="0 0 800.000000 600.000000"
 preserveAspectRatio="xMidYMid meet">

<g transform="translate(0.000000,600.000000) scale(0.100000,-0.100000)"
fill="#000000" stroke="none">
<path d="M3237 5585 c-49 -13 -91 -25 -93 -28 -5 -5 3 -41 70 -302 22 -88 24
-90 52 -89 55 2 189 45 229 73 60 42 88 101 82 176 -8 93 -44 148 -119 180
-50 20 -116 18 -221 -10z m173 -70 c68 -35 92 -137 44 -194 -26 -31 -121 -69
-135 -54 -7 8 -59 211 -59 231 0 11 59 29 98 31 13 1 36 -6 52 -14z"/>
<path d="M4749 5582 c-6 -15 -22 -62 -35 -104 -13 -43 -36 -115 -50 -160 -41
-128 -41 -134 -7 -141 15 -3 35 -8 44 -12 12 -4 20 7 34 52 10 32 21 69 26 83
22 68 82 266 83 274 0 5 -18 15 -42 22 -42 13 -43 13 -53 -14z"/>
<path d="M3960 5592 c0 -10 17 -66 30 -97 4 -11 20 -60 36 -110 15 -49 34 -96
43 -102 8 -7 32 -13 53 -13 31 0 40 5 47 23 5 12 23 53 40 90 39 86 81 188 81
199 0 4 -18 8 -40 8 -48 0 -56 -11 -95 -125 -33 -95 -42 -108 -51 -69 -3 16
-16 67 -28 114 l-21 85 -48 3 c-26 2 -47 -1 -47 -6z"/>
<path d="M3705 5576 c-104 -45 -126 -196 -39 -272 53 -48 163 -51 221 -7 37
27 38 39 9 58 -23 15 -27 15 -48 1 -31 -22 -91 -21 -111 2 -28 30 -20 42 26
42 41 0 168 18 175 25 9 8 -22 92 -41 113 -47 51 -126 67 -192 38z m121 -82
c15 -22 15 -27 3 -35 -16 -10 -112 -12 -122 -3 -4 4 3 20 14 35 28 39 81 41
105 3z"/>
<path d="M4408 5550 c-75 -23 -108 -72 -108 -161 0 -60 3 -69 33 -101 36 -41
80 -58 143 -58 46 0 94 17 94 33 0 6 -7 18 -16 28 -13 14 -26 17 -64 12 -43
-5 -51 -3 -74 20 -21 21 -36 57 -23 57 1 0 49 -9 106 -20 57 -11 108 -17 112
-14 16 10 9 94 -11 133 -28 57 -124 92 -192 71z m109 -82 c7 -6 13 -22 13 -35
0 -24 -2 -25 -47 -19 -93 13 -100 21 -56 56 28 22 63 21 90 -2z"/>
<path d="M4903 5385 c-20 -8 -45 -33 -63 -61 -50 -80 -38 -165 32 -217 69 -51
141 -60 202 -24 52 30 76 77 76 151 0 57 -2 61 -43 100 -63 61 -139 80 -204
51z m132 -91 c15 -11 20 -27 20 -60 0 -38 -5 -50 -29 -71 -23 -19 -36 -23 -59
-19 -69 14 -87 73 -41 133 28 37 73 44 109 17z"/>
<path d="M2623 5349 c-18 -12 -33 -23 -33 -26 0 -5 68 -135 158 -303 43 -80
51 -84 99 -53 15 10 23 23 20 34 -4 15 0 17 28 12 38 -6 89 17 122 56 65 75
21 206 -84 253 -66 29 -125 7 -177 -66 -12 -18 -16 -15 -47 44 -19 35 -38 65
-44 67 -5 1 -25 -7 -42 -18z m269 -110 c26 -11 58 -61 58 -90 0 -40 -30 -69
-69 -69 -86 0 -125 129 -48 160 29 12 32 12 59 -1z"/>
<path d="M5233 5203 c-20 -32 -69 -107 -108 -168 -39 -60 -75 -116 -79 -122
-7 -13 47 -53 72 -53 7 0 28 25 47 55 20 30 37 55 39 55 2 0 13 -16 25 -35 45
-77 134 -95 205 -42 41 32 76 100 76 148 0 75 -63 139 -137 139 -26 0 -31 3
-26 16 6 17 -41 63 -65 64 -7 0 -29 -26 -49 -57z m159 -100 c25 -30 29 -52 14
-88 -28 -67 -104 -78 -142 -21 -19 30 -14 61 17 99 25 33 87 38 111 10z"/>
<path d="M2459 5092 c-73 -47 -99 -106 -80 -180 15 -53 43 -86 95 -112 33 -16
54 -19 80 -14 58 10 121 59 146 110 11 26 20 47 18 49 -2 1 -17 6 -34 9 -28 6
-32 4 -44 -23 -13 -34 -49 -61 -79 -61 -25 0 -51 10 -51 20 0 5 38 37 85 71
47 35 85 66 85 70 0 12 -36 47 -70 68 -49 29 -97 27 -151 -7z m109 -66 c9 -9
1 -20 -38 -49 -27 -20 -54 -37 -59 -37 -15 0 -21 29 -11 54 18 50 72 65 108
32z"/>
<path d="M2162 4989 c-13 -16 -22 -36 -19 -43 3 -8 40 -65 81 -126 42 -62 76
-116 76 -121 0 -5 -58 20 -130 56 -71 36 -135 65 -142 65 -7 0 -27 -14 -44
-31 l-33 -32 85 -125 c47 -68 84 -128 82 -133 -2 -4 -64 23 -138 61 l-135 69
-32 -32 c-18 -17 -33 -36 -33 -43 0 -6 15 -17 33 -25 17 -7 55 -23 82 -35 191
-86 271 -115 284 -107 8 5 25 23 38 39 l23 31 -80 121 c-44 67 -80 124 -80
127 0 3 59 -24 131 -61 72 -36 137 -63 144 -60 7 2 25 20 40 40 l26 34 -26 42
c-14 23 -35 57 -45 75 -83 148 -144 245 -154 244 -6 0 -22 -13 -34 -30z"/>
<path d="M5580 4978 c-71 -19 -141 -122 -126 -184 17 -68 91 -136 159 -149
l37 -7 0 36 c0 32 -3 37 -29 42 -40 8 -74 47 -74 84 0 16 2 33 6 36 3 4 41
-26 83 -65 43 -39 83 -71 89 -71 15 0 38 27 53 63 48 113 -76 249 -198 215z
m116 -102 c19 -30 15 -71 -8 -71 -9 0 -35 17 -58 39 -46 42 -42 56 17 56 24 0
37 -7 49 -24z"/>
<path d="M5818 4703 c-35 -32 -85 -76 -111 -98 l-47 -40 23 -32 c12 -18 29
-33 38 -33 8 0 39 20 68 45 29 25 62 50 73 56 23 12 66 4 90 -18 18 -16 43 -8
68 21 18 23 -3 45 -52 52 -36 6 -38 8 -23 24 15 16 14 20 -10 49 -15 17 -33
31 -40 31 -7 0 -42 -26 -77 -57z"/>
<path d="M5911 4311 c-25 -25 -27 -44 -5 -65 19 -19 35 -20 58 -3 23 17 18 55
-11 74 -19 13 -24 12 -42 -6z"/>
<path d="M6260 4180 c-147 -64 -181 -96 -188 -175 -9 -104 51 -199 141 -224
42 -12 49 -11 135 23 49 20 115 47 146 61 l55 24 -19 43 c-11 24 -25 42 -32
40 -7 -1 -61 -23 -120 -48 -131 -56 -170 -57 -205 -5 -28 42 -29 50 0 90 17
26 47 43 137 81 63 27 116 53 118 58 5 17 -26 82 -40 82 -7 0 -65 -23 -128
-50z"/>
<path d="M1937 4173 c-11 -11 -8 -58 5 -71 28 -28 78 -7 78 33 0 12 -5 26 -12
33 -13 13 -60 16 -71 5z"/>
<path d="M1614 4045 c-6 -14 -1 -45 12 -78 4 -11 -1 -13 -19 -10 -21 4 -27 -1
-41 -37 -9 -24 -15 -44 -14 -46 2 -2 44 -18 93 -37 50 -19 114 -44 142 -56
l53 -21 15 23 c34 52 26 66 -55 98 -93 37 -114 59 -107 116 4 39 3 43 -26 52
-40 14 -47 14 -53 -4z"/>
<path d="M6365 3726 c-142 -41 -181 -56 -183 -70 -2 -10 1 -23 7 -29 6 -6 11
-19 11 -29 0 -10 5 -18 10 -18 18 0 374 103 383 110 15 13 -12 90 -31 89 -9 0
-98 -24 -197 -53z"/>
<path d="M1543 3751 c-43 -27 -68 -83 -67 -151 1 -67 22 -103 75 -131 43 -21
124 -25 163 -8 59 27 98 128 82 213 -7 38 -22 45 -55 25 -14 -10 -17 -21 -13
-60 4 -41 1 -51 -21 -73 -15 -14 -34 -26 -43 -26 -19 0 -17 30 11 125 29 100
29 100 -40 103 -46 2 -68 -2 -92 -17z m83 -87 c-4 -9 -11 -36 -17 -60 -7 -25
-17 -44 -25 -44 -23 0 -47 47 -39 77 8 33 21 43 59 43 22 0 27 -4 22 -16z"/>
<path d="M6156 3543 c-8 -9 -7 -45 2 -59 6 -11 363 -67 514 -81 l67 -6 -9 33
c-5 18 -11 35 -14 37 -2 3 -49 11 -103 19 -54 7 -127 18 -163 23 -36 5 -103
15 -150 21 -47 6 -97 13 -111 15 -15 2 -29 1 -33 -2z"/>
<path d="M1511 3419 c-51 -20 -78 -49 -91 -95 -13 -46 -12 -52 14 -115 5 -11
1 -18 -13 -22 -17 -4 -21 -13 -21 -46 0 -34 4 -41 23 -46 23 -5 186 -21 323
-32 l82 -6 7 42 c4 23 5 45 1 48 -3 3 -27 7 -53 10 -26 2 -58 6 -71 9 l-22 4
21 29 c45 61 27 170 -33 198 -76 35 -119 41 -167 22z m104 -105 c38 -18 54
-59 35 -93 -45 -84 -195 -27 -159 61 19 47 67 59 124 32z"/>
<path d="M6518 3349 c-138 -10 -175 -23 -214 -75 -26 -34 -29 -45 -29 -119 0
-74 3 -85 28 -118 50 -65 68 -72 187 -70 58 1 129 5 158 8 l53 7 -3 46 c-3 43
-5 47 -28 45 -14 0 -81 -3 -149 -4 l-123 -3 -24 27 c-39 45 -27 113 25 137 14
7 76 15 136 17 137 7 147 11 143 66 -4 50 4 48 -160 36z"/>
<path d="M1521 3020 c-102 -24 -150 -140 -102 -245 30 -65 62 -88 130 -93 69
-5 107 11 146 62 53 69 29 217 -42 257 -37 21 -90 29 -132 19z m103 -111 c58
-46 17 -129 -63 -129 -55 0 -81 23 -81 71 0 34 5 42 33 59 41 26 78 25 111 -1z"/>
<path d="M6277 2893 c-4 -46 -3 -49 42 -90 25 -23 44 -44 41 -46 -3 -3 -26
-14 -51 -26 -48 -21 -59 -39 -59 -93 0 -16 5 -28 10 -28 6 0 42 16 80 35 38
19 75 35 81 35 6 0 40 -22 75 -50 35 -27 66 -50 69 -50 3 0 5 24 5 54 0 51 -2
55 -40 81 -22 15 -38 31 -35 35 2 4 24 15 48 24 43 16 45 19 51 68 4 27 5 52
3 55 -3 2 -34 -11 -68 -29 -35 -18 -72 -36 -81 -40 -13 -5 -36 9 -87 52 -38
33 -71 60 -74 60 -3 0 -7 -21 -10 -47z"/>
<path d="M1649 2635 c-3 -2 -34 -9 -70 -14 -137 -21 -254 -44 -262 -50 -4 -4
-4 -25 1 -47 10 -48 9 -48 217 -11 194 35 216 40 215 50 0 4 0 23 0 42 l0 35
-48 0 c-27 0 -51 -2 -53 -5z"/>
<path d="M1570 2449 c-56 -33 -72 -61 -71 -130 0 -150 139 -222 264 -136 37
25 57 67 57 121 0 102 -96 219 -116 141 -4 -16 -1 -32 8 -43 30 -35 40 -74 28
-103 -16 -39 -36 -43 -48 -11 -12 33 -37 117 -46 155 -8 33 -28 34 -76 6z m64
-138 c21 -65 20 -71 -7 -71 -56 0 -87 70 -48 109 28 28 35 22 55 -38z"/>
<path d="M6182 2348 c-36 -116 -40 -173 -15 -226 39 -82 95 -116 193 -117 77
0 127 25 165 84 23 35 92 228 84 235 -6 6 -373 126 -385 126 -5 0 -24 -46 -42
-102z m208 -54 c120 -40 122 -43 95 -105 -28 -63 -63 -89 -121 -89 -42 0 -103
38 -121 75 -15 31 -15 42 -4 88 16 60 19 67 32 67 5 0 59 -16 119 -36z"/>
<path d="M1663 2088 l-101 -10 11 -26 c28 -63 29 -63 83 -53 27 5 77 12 111
16 78 8 77 2 -28 -88 -75 -65 -78 -69 -67 -95 28 -66 29 -65 154 59 l115 115
-20 47 -20 47 -68 -1 c-37 -1 -114 -6 -170 -11z"/>
<path d="M6106 2020 c-44 -14 -84 -58 -106 -118 -26 -69 -20 -117 13 -108 12
3 25 6 28 6 4 0 9 17 13 38 8 55 40 92 77 92 27 0 30 -3 23 -22 -3 -13 -10
-27 -14 -33 -4 -5 -24 -40 -44 -76 -41 -76 -39 -80 36 -100 41 -11 52 -10 87
6 84 37 126 151 86 232 -31 62 -131 104 -199 83z m126 -137 c39 -35 8 -103
-48 -103 -19 0 -34 3 -34 7 0 10 54 113 59 113 3 0 13 -7 23 -17z"/>
<path d="M1950 1830 c0 -22 5 -40 10 -40 6 0 22 -12 35 -26 28 -30 34 -84 11
-103 -11 -9 -24 6 -66 75 -29 47 -58 88 -65 91 -20 7 -51 -13 -76 -49 -33 -46
-32 -119 4 -175 29 -46 89 -83 133 -83 39 0 109 36 139 72 43 51 33 153 -23
219 -15 18 -82 59 -97 59 -3 0 -5 -18 -5 -40z m-31 -151 c17 -28 31 -55 31
-60 0 -15 -62 -10 -82 8 -29 26 -20 103 13 103 3 0 20 -23 38 -51z"/>
<path d="M5914 1740 c-43 -28 -86 -96 -92 -145 -3 -34 0 -47 21 -70 35 -41 77
-39 146 8 55 38 75 44 86 27 10 -16 -11 -45 -53 -74 -39 -27 -39 -28 -26 -56
19 -38 43 -30 99 32 63 70 71 127 24 176 -30 33 -75 28 -136 -13 -29 -19 -59
-35 -67 -35 -45 0 -19 55 45 96 38 24 40 26 26 47 -19 29 -36 31 -73 7z"/>
<path d="M2065 1534 c-57 -30 -92 -63 -114 -108 -27 -60 -27 -107 3 -167 23
-45 41 -67 127 -162 l35 -40 50 45 c27 25 95 87 152 138 56 51 102 95 102 98
0 18 -158 174 -193 191 -51 25 -120 27 -162 5z m187 -126 c21 -23 38 -44 38
-48 0 -8 -154 -150 -175 -162 -8 -5 -25 5 -45 28 -62 72 -62 122 1 185 35 35
44 39 91 39 47 0 54 -3 90 -42z"/>
<path d="M5715 1499 l-26 -32 28 -29 c34 -36 191 -172 203 -176 11 -4 59 48
60 63 0 6 -37 42 -81 80 -45 39 -95 82 -113 97 -17 15 -34 28 -38 28 -3 0 -18
-14 -33 -31z"/>
<path d="M5535 1456 c-49 -23 -84 -55 -118 -106 -20 -28 -22 -95 -4 -127 20
-34 210 -243 222 -243 21 0 66 56 59 73 -5 13 0 17 19 17 24 0 70 29 94 60 17
21 16 105 -2 140 -8 16 -32 42 -52 57 -74 57 -182 29 -213 -56 l-13 -35 -18
23 c-11 13 -19 34 -19 48 0 30 48 77 94 93 32 10 33 11 22 45 -6 19 -13 35
-16 35 -3 0 -27 -11 -55 -24z m156 -199 c27 -18 35 -30 37 -61 7 -77 -71 -106
-122 -45 -39 46 -32 89 19 117 27 15 27 15 66 -11z"/>
<path d="M5997 1262 c-31 -34 -20 -69 26 -85 21 -8 57 25 57 51 -1 43 -54 66
-83 34z"/>
<path d="M2492 1138 c-79 -110 -85 -124 -77 -164 8 -43 52 -86 121 -119 66
-31 80 -31 88 0 8 30 1 45 -19 45 -25 0 -82 39 -93 64 -9 19 -8 27 4 37 11 9
25 5 69 -25 79 -52 142 -49 173 11 22 40 14 73 -27 114 -31 31 -46 39 -76 39
-29 0 -36 3 -31 15 5 13 -49 65 -67 65 -3 0 -32 -37 -65 -82z m171 -66 c28
-24 18 -56 -18 -60 -38 -3 -89 35 -80 60 12 31 63 31 98 0z"/>
<path d="M5337 1151 c-15 -10 -30 -20 -33 -24 -3 -3 17 -41 45 -83 29 -44 51
-90 51 -104 0 -35 -29 -60 -67 -60 -28 0 -37 9 -88 85 l-57 85 -39 -22 c-21
-12 -39 -25 -39 -28 0 -18 124 -192 150 -210 57 -41 139 -11 168 61 14 37 16
38 33 23 17 -16 21 -15 54 10 36 28 42 40 26 51 -5 3 -42 57 -82 120 -40 63
-77 115 -83 114 -6 0 -23 -8 -39 -18z"/>
<path d="M2772 885 c-62 -57 -113 -108 -114 -112 0 -4 16 -17 36 -28 l37 -19
77 77 c42 42 81 80 86 84 9 8 6 -24 -18 -147 -7 -41 -12 -78 -9 -83 3 -6 69
-37 78 -37 2 0 13 74 36 242 6 43 7 82 4 88 -7 12 -72 40 -89 40 -6 -1 -62
-48 -124 -105z"/>
<path d="M4928 920 c-33 -18 -98 -85 -98 -101 0 -4 14 -9 31 -13 26 -5 38 0
66 24 37 33 77 39 109 16 10 -8 17 -17 14 -19 -3 -3 -49 -26 -102 -51 -54 -25
-98 -48 -98 -51 0 -21 55 -85 86 -100 69 -32 183 6 219 74 32 62 13 151 -44
205 -41 39 -127 47 -183 16z m142 -215 c-20 -24 -69 -29 -91 -9 -10 9 -19 20
-19 24 0 4 26 19 58 33 l57 26 3 -30 c2 -17 -2 -36 -8 -44z"/>
<path d="M3092 863 c-6 -15 -18 -50 -27 -78 -9 -27 -21 -58 -26 -67 -5 -10 -9
-37 -9 -61 0 -34 6 -49 28 -70 39 -37 93 -57 157 -57 l55 0 0 35 0 35 -50 0
c-41 0 -56 5 -76 25 -14 14 -24 31 -21 38 5 15 26 13 97 -7 68 -20 113 -8 135
34 20 39 19 67 -5 100 -25 35 -69 53 -120 48 -26 -2 -40 1 -40 8 0 17 -21 31
-56 38 -28 6 -32 4 -42 -21z m168 -91 c34 -27 20 -62 -25 -62 -39 0 -85 18
-85 33 0 21 34 47 60 47 15 0 38 -8 50 -18z"/>
<path d="M4698 828 c-32 -11 -33 -13 -14 -70 37 -109 32 -159 -15 -183 -27
-14 -30 -20 -24 -48 4 -18 11 -36 16 -41 11 -12 56 18 64 44 8 25 22 26 30 1
5 -17 10 -18 45 -7 21 6 42 14 45 18 5 5 -31 133 -80 286 -5 14 -29 14 -67 0z"/>
<path d="M3465 761 c-49 -20 -71 -72 -100 -231 -9 -52 -21 -106 -26 -119 -6
-13 -8 -25 -7 -26 5 -5 160 -38 200 -43 34 -4 39 -1 48 23 5 14 10 30 10 34 0
10 -70 31 -103 31 -14 0 -28 4 -31 9 -7 10 32 198 45 224 15 27 59 21 95 -14
l32 -31 25 28 c28 30 26 44 -15 80 -42 38 -124 55 -173 35z"/>
<path d="M4350 734 c-22 -26 -1 -69 34 -69 35 0 51 23 42 58 -5 21 -12 27 -35
27 -16 0 -34 -7 -41 -16z"/>
</g>
</svg>
